<svg width="222" height="48" viewBox="0 0 222 48" fill="none" xmlns="http://www.w3.org/2000/svg">
<path d="M0 6C0 2.68629 2.68629 0 6 0H42C45.3137 0 48 2.68629 48 6V42C48 45.3137 45.3137 48 42 48H6C2.68629 48 0 45.3137 0 42V6Z" fill="#262626"/>
<path d="M23.9836 7.30452L24.1596 7.31345L24.1896 7.31588C24.7408 7.37064 25.2599 7.61395 25.6554 8.00943L25.8152 8.18627C26.1663 8.61486 26.3611 9.1539 26.3611 9.7129V11.0546C29.4008 11.5853 32.1324 13.2882 33.3697 15.9111L33.3705 15.9119C33.505 16.1975 33.5825 16.5075 33.5976 16.8237C33.6127 17.1393 33.566 17.4561 33.4589 17.7541C33.352 18.0517 33.1867 18.3262 32.9738 18.5604C32.7611 18.7944 32.5038 18.9845 32.2178 19.1193C31.9309 19.2545 31.6207 19.3305 31.3061 19.3456C30.9904 19.3607 30.6736 19.3139 30.3756 19.2069C30.078 19.0999 29.8036 18.9347 29.5693 18.7218C29.3354 18.5091 29.1453 18.2519 29.0104 17.9658L29.0096 17.965C28.5296 16.9407 26.9324 15.7685 24.5319 15.6961L24.2975 15.6929C22.7502 15.6929 21.4392 16.1671 20.571 16.818L20.5702 16.8188C19.7055 17.4671 19.3907 18.1814 19.3907 18.7672L19.3939 18.8784C19.4318 19.4423 19.7598 20.1094 20.571 20.7189L20.7389 20.8382C21.6038 21.4268 22.8445 21.844 24.2951 21.844C24.4495 21.8441 24.6027 21.8591 24.7518 21.8878C26.8459 22.0678 28.7932 22.7851 30.3213 23.932C32.0989 25.2663 33.4257 27.2931 33.4257 29.736C33.4256 32.1787 32.099 34.2079 30.3189 35.5407C29.1904 36.3875 27.8339 36.9958 26.3611 37.3302V38.2866C26.3611 38.9255 26.107 39.5384 25.6554 39.99C25.2038 40.4417 24.5907 40.6957 23.9519 40.6958C23.313 40.6957 22.7006 40.4412 22.2493 39.99C21.7976 39.5383 21.5436 38.9255 21.5436 38.2866V37.4316C18.6422 36.9005 16.0316 35.2995 14.7565 32.846L14.6299 32.5905C14.3576 32.0124 14.3266 31.3498 14.5423 30.7491L14.634 30.5293C14.8719 30.029 15.2763 29.6231 15.7818 29.3847C16.3592 29.1126 17.0218 29.0804 17.6231 29.2963C18.2242 29.5122 18.7151 29.9584 18.9875 30.5358L18.9884 30.5366C19.4875 31.5969 21.1747 32.8111 23.7053 32.8111C25.2528 32.8111 26.5621 32.3371 27.4303 31.686C28.2943 31.0383 28.6081 30.3241 28.6081 29.7376C28.6081 29.1505 28.294 28.4338 27.4295 27.7867L27.4278 27.7859C26.5616 27.1352 25.2509 26.6601 23.7053 26.66C23.554 26.66 23.4068 26.642 23.2649 26.6154C21.1652 26.4377 19.2121 25.7227 17.6799 24.5728C15.9026 23.2389 14.5732 21.2122 14.5731 18.7689C14.5731 16.3256 15.9024 14.2974 17.6799 12.9633C18.7837 12.1361 20.1066 11.5318 21.5436 11.1925V9.7129C21.5436 9.07473 21.7965 8.46155 22.2485 8.00943L22.4253 7.84963C22.8539 7.49853 23.393 7.30374 23.9519 7.30371L23.9836 7.30452Z" fill="#FCFCFC"/>
<path d="M58.736 39V13.8H74.9V18.3H63.668V24.348H73.028V28.848H63.668V39H58.736ZM78.2736 39V21H83.0256V39H78.2736ZM80.6496 18.084C79.9296 18.084 79.2936 17.82 78.7416 17.292C78.1896 16.74 77.9136 16.092 77.9136 15.348C77.9136 14.604 78.1896 13.968 78.7416 13.44C79.2936 12.888 79.9296 12.612 80.6496 12.612C81.3936 12.612 82.0296 12.888 82.5576 13.44C83.1096 13.968 83.3856 14.604 83.3856 15.348C83.3856 16.092 83.1096 16.74 82.5576 17.292C82.0296 17.82 81.3936 18.084 80.6496 18.084ZM87.4075 39V21H91.8715L92.1595 24.312V39H87.4075ZM99.3235 39V29.784H104.075V39H99.3235ZM99.3235 29.784C99.3235 28.56 99.1795 27.612 98.8915 26.94C98.6275 26.268 98.2435 25.788 97.7395 25.5C97.2355 25.188 96.6475 25.032 95.9755 25.032C94.7515 25.008 93.8035 25.38 93.1315 26.148C92.4835 26.916 92.1595 28.056 92.1595 29.568H90.5755C90.5755 27.648 90.8515 26.028 91.4035 24.708C91.9795 23.364 92.7715 22.344 93.7795 21.648C94.8115 20.928 96.0115 20.568 97.3795 20.568C98.7955 20.568 100.007 20.856 101.015 21.432C102.023 22.008 102.791 22.908 103.319 24.132C103.847 25.332 104.099 26.892 104.075 28.812V29.784H99.3235ZM118.74 39L118.596 35.364V29.892C118.596 28.812 118.476 27.888 118.236 27.12C118.02 26.352 117.66 25.764 117.156 25.356C116.676 24.924 116.016 24.708 115.176 24.708C114.408 24.708 113.712 24.876 113.088 25.212C112.464 25.548 111.936 26.064 111.504 26.76L107.328 25.32C107.664 24.552 108.156 23.808 108.804 23.088C109.452 22.344 110.292 21.744 111.324 21.288C112.38 20.808 113.664 20.568 115.176 20.568C117 20.568 118.512 20.916 119.712 21.612C120.936 22.308 121.836 23.292 122.412 24.564C123.012 25.812 123.3 27.3 123.276 29.028L123.168 39H118.74ZM113.7 39.432C111.54 39.432 109.86 38.952 108.66 37.992C107.484 37.032 106.896 35.676 106.896 33.924C106.896 32.004 107.532 30.564 108.804 29.604C110.1 28.62 111.912 28.128 114.24 28.128H118.812V31.656H115.896C114.336 31.656 113.256 31.848 112.656 32.232C112.056 32.592 111.756 33.108 111.756 33.78C111.756 34.308 111.996 34.728 112.476 35.04C112.956 35.328 113.628 35.472 114.492 35.472C115.284 35.472 115.98 35.292 116.58 34.932C117.204 34.548 117.696 34.068 118.056 33.492C118.416 32.892 118.596 32.28 118.596 31.656H119.748C119.748 34.104 119.28 36.012 118.344 37.38C117.432 38.748 115.884 39.432 113.7 39.432ZM127.064 39V21H131.528L131.816 24.312V39H127.064ZM138.98 39V29.784H143.732V39H138.98ZM138.98 29.784C138.98 28.56 138.836 27.612 138.548 26.94C138.284 26.268 137.9 25.788 137.396 25.5C136.892 25.188 136.304 25.032 135.632 25.032C134.408 25.008 133.46 25.38 132.788 26.148C132.14 26.916 131.816 28.056 131.816 29.568H130.232C130.232 27.648 130.508 26.028 131.06 24.708C131.636 23.364 132.428 22.344 133.436 21.648C134.468 20.928 135.668 20.568 137.036 20.568C138.452 20.568 139.664 20.856 140.672 21.432C141.68 22.008 142.448 22.908 142.976 24.132C143.504 25.332 143.756 26.892 143.732 28.812V29.784H138.98ZM156.201 39.432C154.329 39.432 152.661 39.036 151.197 38.244C149.733 37.428 148.593 36.312 147.777 34.896C146.961 33.456 146.553 31.824 146.553 30C146.553 28.152 146.961 26.52 147.777 25.104C148.593 23.688 149.721 22.584 151.161 21.792C152.601 20.976 154.257 20.568 156.129 20.568C157.929 20.568 159.573 21.012 161.061 21.9C162.549 22.788 163.629 24.072 164.301 25.752L159.837 27.336C159.501 26.64 158.973 26.088 158.253 25.68C157.557 25.248 156.777 25.032 155.913 25.032C155.025 25.032 154.245 25.248 153.573 25.68C152.901 26.088 152.373 26.664 151.989 27.408C151.605 28.152 151.413 29.016 151.413 30C151.413 30.984 151.605 31.848 151.989 32.592C152.373 33.312 152.913 33.888 153.609 34.32C154.305 34.752 155.097 34.968 155.985 34.968C156.849 34.968 157.629 34.74 158.325 34.284C159.045 33.828 159.573 33.228 159.909 32.484L164.409 34.068C163.713 35.772 162.621 37.092 161.133 38.028C159.669 38.964 158.025 39.432 156.201 39.432ZM175.313 39.432C173.537 39.432 171.965 39.036 170.597 38.244C169.229 37.428 168.149 36.312 167.357 34.896C166.589 33.48 166.205 31.848 166.205 30C166.205 28.152 166.601 26.52 167.393 25.104C168.209 23.688 169.313 22.584 170.705 21.792C172.121 20.976 173.741 20.568 175.565 20.568C177.149 20.568 178.601 20.988 179.921 21.828C181.265 22.644 182.333 23.856 183.125 25.464C183.941 27.048 184.349 28.98 184.349 31.26H170.705L171.137 30.828C171.137 31.716 171.353 32.496 171.785 33.168C172.241 33.816 172.817 34.32 173.513 34.68C174.233 35.016 175.001 35.184 175.817 35.184C176.801 35.184 177.605 34.98 178.229 34.572C178.853 34.14 179.333 33.588 179.669 32.916L183.917 34.572C183.413 35.58 182.753 36.456 181.937 37.2C181.145 37.92 180.197 38.472 179.093 38.856C177.989 39.24 176.729 39.432 175.313 39.432ZM171.389 28.164L170.957 27.732H179.633L179.237 28.164C179.237 27.3 179.033 26.616 178.625 26.112C178.217 25.584 177.713 25.2 177.113 24.96C176.537 24.72 175.973 24.6 175.421 24.6C174.869 24.6 174.281 24.72 173.657 24.96C173.033 25.2 172.493 25.584 172.037 26.112C171.605 26.616 171.389 27.3 171.389 28.164ZM205.255 39L195.607 13.8H200.539L210.475 39H205.255ZM185.347 39L195.283 13.8H200.215L190.567 39H185.347ZM190.027 33.456V29.1H205.831V33.456H190.027ZM213.494 39V13.8H218.426V39H213.494Z" fill="#262626"/>
</svg>
