<svg width="48" height="48" viewBox="0 0 48 48" fill="none" xmlns="http://www.w3.org/2000/svg">
<path d="M0 6C0 2.68629 2.68629 0 6 0H42C45.3137 0 48 2.68629 48 6V42C48 45.3137 45.3137 48 42 48H6C2.68629 48 0 45.3137 0 42V6Z" fill="#262626"/>
<path d="M23.9836 7.30452L24.1596 7.31345L24.1896 7.31588C24.7408 7.37064 25.2599 7.61395 25.6554 8.00943L25.8152 8.18627C26.1663 8.61486 26.3611 9.1539 26.3611 9.7129V11.0546C29.4008 11.5853 32.1324 13.2882 33.3697 15.9111L33.3705 15.9119C33.505 16.1975 33.5825 16.5075 33.5976 16.8237C33.6127 17.1393 33.566 17.4561 33.4589 17.7541C33.352 18.0517 33.1867 18.3262 32.9738 18.5604C32.7611 18.7944 32.5038 18.9845 32.2178 19.1193C31.9309 19.2545 31.6207 19.3305 31.3061 19.3456C30.9904 19.3607 30.6736 19.3139 30.3756 19.2069C30.078 19.0999 29.8036 18.9347 29.5693 18.7218C29.3354 18.5091 29.1453 18.2519 29.0104 17.9658L29.0096 17.965C28.5296 16.9407 26.9324 15.7685 24.5319 15.6961L24.2975 15.6929C22.7502 15.6929 21.4392 16.1671 20.571 16.818L20.5702 16.8188C19.7055 17.4671 19.3907 18.1814 19.3907 18.7672L19.3939 18.8784C19.4318 19.4423 19.7598 20.1094 20.571 20.7189L20.7389 20.8382C21.6038 21.4268 22.8445 21.844 24.2951 21.844C24.4495 21.8441 24.6027 21.8591 24.7518 21.8878C26.8459 22.0678 28.7932 22.7851 30.3213 23.932C32.0989 25.2663 33.4257 27.2931 33.4257 29.736C33.4256 32.1787 32.099 34.2079 30.3189 35.5407C29.1904 36.3875 27.8339 36.9958 26.3611 37.3302V38.2866C26.3611 38.9255 26.107 39.5384 25.6554 39.99C25.2038 40.4417 24.5907 40.6957 23.9519 40.6958C23.313 40.6957 22.7006 40.4412 22.2493 39.99C21.7976 39.5383 21.5436 38.9255 21.5436 38.2866V37.4316C18.6422 36.9005 16.0316 35.2995 14.7565 32.846L14.6299 32.5905C14.3576 32.0124 14.3266 31.3498 14.5423 30.7491L14.634 30.5293C14.8719 30.029 15.2763 29.6231 15.7818 29.3847C16.3592 29.1126 17.0218 29.0804 17.6231 29.2963C18.2242 29.5122 18.7151 29.9584 18.9875 30.5358L18.9884 30.5366C19.4875 31.5969 21.1747 32.8111 23.7053 32.8111C25.2528 32.8111 26.5621 32.3371 27.4303 31.686C28.2943 31.0383 28.6081 30.3241 28.6081 29.7376C28.6081 29.1505 28.294 28.4338 27.4295 27.7867L27.4278 27.7859C26.5616 27.1352 25.2509 26.6601 23.7053 26.66C23.554 26.66 23.4068 26.642 23.2649 26.6154C21.1652 26.4377 19.2121 25.7227 17.6799 24.5728C15.9026 23.2389 14.5732 21.2122 14.5731 18.7689C14.5731 16.3256 15.9024 14.2974 17.6799 12.9633C18.7837 12.1361 20.1066 11.5318 21.5436 11.1925V9.7129C21.5436 9.07473 21.7965 8.46155 22.2485 8.00943L22.4253 7.84963C22.8539 7.49853 23.393 7.30374 23.9519 7.30371L23.9836 7.30452Z" fill="#FCFCFC"/>
</svg>
