<svg width="166" height="43" viewBox="0 0 166 43" fill="none" xmlns="http://www.w3.org/2000/svg">
<path d="M2.736 34V8.8H18.9V13.3H7.668V19.348H17.028V23.848H7.668V34H2.736ZM22.2736 34V16H27.0256V34H22.2736ZM24.6496 13.084C23.9296 13.084 23.2936 12.82 22.7416 12.292C22.1896 11.74 21.9136 11.092 21.9136 10.348C21.9136 9.604 22.1896 8.968 22.7416 8.44C23.2936 7.888 23.9296 7.612 24.6496 7.612C25.3936 7.612 26.0296 7.888 26.5576 8.44C27.1096 8.968 27.3856 9.604 27.3856 10.348C27.3856 11.092 27.1096 11.74 26.5576 12.292C26.0296 12.82 25.3936 13.084 24.6496 13.084ZM31.4075 34V16H35.8715L36.1595 19.312V34H31.4075ZM43.3235 34V24.784H48.0755V34H43.3235ZM43.3235 24.784C43.3235 23.56 43.1795 22.612 42.8915 21.94C42.6275 21.268 42.2435 20.788 41.7395 20.5C41.2355 20.188 40.6475 20.032 39.9755 20.032C38.7515 20.008 37.8035 20.38 37.1315 21.148C36.4835 21.916 36.1595 23.056 36.1595 24.568H34.5755C34.5755 22.648 34.8515 21.028 35.4035 19.708C35.9795 18.364 36.7715 17.344 37.7795 16.648C38.8115 15.928 40.0115 15.568 41.3795 15.568C42.7955 15.568 44.0075 15.856 45.0155 16.432C46.0235 17.008 46.7915 17.908 47.3195 19.132C47.8475 20.332 48.0995 21.892 48.0755 23.812V24.784H43.3235ZM62.7404 34L62.5964 30.364V24.892C62.5964 23.812 62.4764 22.888 62.2364 22.12C62.0204 21.352 61.6604 20.764 61.1564 20.356C60.6764 19.924 60.0164 19.708 59.1764 19.708C58.4084 19.708 57.7124 19.876 57.0884 20.212C56.4644 20.548 55.9364 21.064 55.5044 21.76L51.3284 20.32C51.6644 19.552 52.1564 18.808 52.8044 18.088C53.4524 17.344 54.2924 16.744 55.3244 16.288C56.3804 15.808 57.6644 15.568 59.1764 15.568C61.0004 15.568 62.5124 15.916 63.7124 16.612C64.9364 17.308 65.8364 18.292 66.4124 19.564C67.0124 20.812 67.3004 22.3 67.2764 24.028L67.1684 34H62.7404ZM57.7004 34.432C55.5404 34.432 53.8604 33.952 52.6604 32.992C51.4844 32.032 50.8964 30.676 50.8964 28.924C50.8964 27.004 51.5324 25.564 52.8044 24.604C54.1004 23.62 55.9124 23.128 58.2404 23.128H62.8124V26.656H59.8964C58.3364 26.656 57.2564 26.848 56.6564 27.232C56.0564 27.592 55.7564 28.108 55.7564 28.78C55.7564 29.308 55.9964 29.728 56.4764 30.04C56.9564 30.328 57.6284 30.472 58.4924 30.472C59.2844 30.472 59.9804 30.292 60.5804 29.932C61.2044 29.548 61.6964 29.068 62.0564 28.492C62.4164 27.892 62.5964 27.28 62.5964 26.656H63.7484C63.7484 29.104 63.2804 31.012 62.3444 32.38C61.4324 33.748 59.8844 34.432 57.7004 34.432ZM71.0637 34V16H75.5277L75.8157 19.312V34H71.0637ZM82.9797 34V24.784H87.7317V34H82.9797ZM82.9797 24.784C82.9797 23.56 82.8357 22.612 82.5477 21.94C82.2837 21.268 81.8997 20.788 81.3957 20.5C80.8917 20.188 80.3037 20.032 79.6317 20.032C78.4077 20.008 77.4597 20.38 76.7877 21.148C76.1397 21.916 75.8157 23.056 75.8157 24.568H74.2317C74.2317 22.648 74.5077 21.028 75.0597 19.708C75.6357 18.364 76.4277 17.344 77.4357 16.648C78.4677 15.928 79.6677 15.568 81.0357 15.568C82.4517 15.568 83.6637 15.856 84.6717 16.432C85.6797 17.008 86.4477 17.908 86.9757 19.132C87.5037 20.332 87.7557 21.892 87.7317 23.812V24.784H82.9797ZM100.201 34.432C98.3287 34.432 96.6607 34.036 95.1967 33.244C93.7327 32.428 92.5927 31.312 91.7767 29.896C90.9607 28.456 90.5527 26.824 90.5527 25C90.5527 23.152 90.9607 21.52 91.7767 20.104C92.5927 18.688 93.7207 17.584 95.1607 16.792C96.6007 15.976 98.2567 15.568 100.129 15.568C101.929 15.568 103.573 16.012 105.061 16.9C106.549 17.788 107.629 19.072 108.301 20.752L103.837 22.336C103.501 21.64 102.973 21.088 102.253 20.68C101.557 20.248 100.777 20.032 99.9127 20.032C99.0247 20.032 98.2447 20.248 97.5727 20.68C96.9007 21.088 96.3727 21.664 95.9887 22.408C95.6047 23.152 95.4127 24.016 95.4127 25C95.4127 25.984 95.6047 26.848 95.9887 27.592C96.3727 28.312 96.9127 28.888 97.6087 29.32C98.3047 29.752 99.0967 29.968 99.9847 29.968C100.849 29.968 101.629 29.74 102.325 29.284C103.045 28.828 103.573 28.228 103.909 27.484L108.409 29.068C107.713 30.772 106.621 32.092 105.133 33.028C103.669 33.964 102.025 34.432 100.201 34.432ZM119.313 34.432C117.537 34.432 115.965 34.036 114.597 33.244C113.229 32.428 112.149 31.312 111.357 29.896C110.589 28.48 110.205 26.848 110.205 25C110.205 23.152 110.601 21.52 111.393 20.104C112.209 18.688 113.313 17.584 114.705 16.792C116.121 15.976 117.741 15.568 119.565 15.568C121.149 15.568 122.601 15.988 123.921 16.828C125.265 17.644 126.333 18.856 127.125 20.464C127.941 22.048 128.349 23.98 128.349 26.26H114.705L115.137 25.828C115.137 26.716 115.353 27.496 115.785 28.168C116.241 28.816 116.817 29.32 117.513 29.68C118.233 30.016 119.001 30.184 119.817 30.184C120.801 30.184 121.605 29.98 122.229 29.572C122.853 29.14 123.333 28.588 123.669 27.916L127.917 29.572C127.413 30.58 126.753 31.456 125.937 32.2C125.145 32.92 124.197 33.472 123.093 33.856C121.989 34.24 120.729 34.432 119.313 34.432ZM115.389 23.164L114.957 22.732H123.633L123.237 23.164C123.237 22.3 123.033 21.616 122.625 21.112C122.217 20.584 121.713 20.2 121.113 19.96C120.537 19.72 119.973 19.6 119.421 19.6C118.869 19.6 118.281 19.72 117.657 19.96C117.033 20.2 116.493 20.584 116.037 21.112C115.605 21.616 115.389 22.3 115.389 23.164ZM149.255 34L139.607 8.8H144.539L154.475 34H149.255ZM129.347 34L139.283 8.8H144.215L134.567 34H129.347ZM134.027 28.456V24.1H149.831V28.456H134.027ZM157.494 34V8.8H162.426V34H157.494Z" fill="#262626"/>
</svg>
